<mxfile host="app.diagrams.net" modified="2023-07-17T02:18:46.302Z" agent="Mozilla/5.0 (Windows NT 10.0; Win64; x64) AppleWebKit/537.36 (KHTML, like Gecko) Chrome/114.0.0.0 Safari/537.36" etag="8SNiNgZn8Dzvfj74HAmQ" version="21.6.2" type="device" pages="2">
  <diagram name="Página-1" id="Z9eVsmrQ-1yiNhcKh_la">
    <mxGraphModel dx="1562" dy="861" grid="1" gridSize="10" guides="1" tooltips="1" connect="1" arrows="1" fold="1" page="1" pageScale="1" pageWidth="4681" pageHeight="3300" math="0" shadow="0">
      <root>
        <mxCell id="0" />
        <mxCell id="1" parent="0" />
        <mxCell id="6Z7XfqViIywqbPi5wwy--1" value="&lt;font style=&quot;font-size: 16px;&quot;&gt;inicio&lt;/font&gt;" style="ellipse;whiteSpace=wrap;html=1;" parent="1" vertex="1">
          <mxGeometry x="80" y="40" width="120" height="80" as="geometry" />
        </mxCell>
        <mxCell id="6Z7XfqViIywqbPi5wwy--2" value="" style="endArrow=none;html=1;rounded=0;entryX=0.5;entryY=1;entryDx=0;entryDy=0;" parent="1" target="6Z7XfqViIywqbPi5wwy--1" edge="1">
          <mxGeometry width="50" height="50" relative="1" as="geometry">
            <mxPoint x="140" y="160" as="sourcePoint" />
            <mxPoint x="440" y="130" as="targetPoint" />
          </mxGeometry>
        </mxCell>
        <mxCell id="6Z7XfqViIywqbPi5wwy--7" value="Salario = &lt;br&gt;1.600.000" style="shape=parallelogram;perimeter=parallelogramPerimeter;whiteSpace=wrap;html=1;fixedSize=1;" parent="1" vertex="1">
          <mxGeometry x="80" y="160" width="120" height="60" as="geometry" />
        </mxCell>
        <mxCell id="6Z7XfqViIywqbPi5wwy--20" value="" style="verticalLabelPosition=bottom;verticalAlign=top;html=1;shape=process;whiteSpace=wrap;rounded=1;size=0.14;arcSize=6;" parent="1" vertex="1">
          <mxGeometry x="70" y="620" width="140" height="80" as="geometry" />
        </mxCell>
        <mxCell id="6Z7XfqViIywqbPi5wwy--27" value="" style="verticalLabelPosition=bottom;verticalAlign=top;html=1;shape=process;whiteSpace=wrap;rounded=1;size=0.14;arcSize=6;" parent="1" vertex="1">
          <mxGeometry x="70" y="500" width="140" height="80" as="geometry" />
        </mxCell>
        <mxCell id="6Z7XfqViIywqbPi5wwy--28" value="" style="verticalLabelPosition=bottom;verticalAlign=top;html=1;shape=process;whiteSpace=wrap;rounded=1;size=0.14;arcSize=6;" parent="1" vertex="1">
          <mxGeometry x="70" y="380" width="140" height="80" as="geometry" />
        </mxCell>
        <mxCell id="6Z7XfqViIywqbPi5wwy--29" value="" style="verticalLabelPosition=bottom;verticalAlign=top;html=1;shape=process;whiteSpace=wrap;rounded=1;size=0.14;arcSize=6;" parent="1" vertex="1">
          <mxGeometry x="70" y="260" width="140" height="80" as="geometry" />
        </mxCell>
        <mxCell id="6Z7XfqViIywqbPi5wwy--10" value="Calcular dsc. de préstamo =160.000" style="text;strokeColor=none;align=center;fillColor=none;html=1;verticalAlign=middle;whiteSpace=wrap;rounded=0;" parent="1" vertex="1">
          <mxGeometry x="90" y="260" width="100" height="80" as="geometry" />
        </mxCell>
        <mxCell id="6Z7XfqViIywqbPi5wwy--31" value="" style="endArrow=none;html=1;rounded=0;entryX=0.5;entryY=1;entryDx=0;entryDy=0;" parent="1" target="6Z7XfqViIywqbPi5wwy--7" edge="1">
          <mxGeometry width="50" height="50" relative="1" as="geometry">
            <mxPoint x="140" y="260" as="sourcePoint" />
            <mxPoint x="320" y="330" as="targetPoint" />
          </mxGeometry>
        </mxCell>
        <mxCell id="6Z7XfqViIywqbPi5wwy--32" value="" style="endArrow=none;html=1;rounded=0;entryX=0.5;entryY=1;entryDx=0;entryDy=0;" parent="1" edge="1">
          <mxGeometry width="50" height="50" relative="1" as="geometry">
            <mxPoint x="139.5" y="380" as="sourcePoint" />
            <mxPoint x="139.5" y="340" as="targetPoint" />
          </mxGeometry>
        </mxCell>
        <mxCell id="6Z7XfqViIywqbPi5wwy--35" value="Calcular dsc. de eps = salario * 4%" style="text;strokeColor=none;align=center;fillColor=none;html=1;verticalAlign=middle;whiteSpace=wrap;rounded=0;" parent="1" vertex="1">
          <mxGeometry x="90" y="380" width="100" height="80" as="geometry" />
        </mxCell>
        <mxCell id="6Z7XfqViIywqbPi5wwy--36" value="" style="endArrow=none;html=1;rounded=0;entryX=0.5;entryY=1;entryDx=0;entryDy=0;" parent="1" edge="1">
          <mxGeometry width="50" height="50" relative="1" as="geometry">
            <mxPoint x="139.5" y="500" as="sourcePoint" />
            <mxPoint x="139.5" y="460" as="targetPoint" />
          </mxGeometry>
        </mxCell>
        <mxCell id="6Z7XfqViIywqbPi5wwy--37" value="" style="endArrow=none;html=1;rounded=0;entryX=0.5;entryY=1;entryDx=0;entryDy=0;" parent="1" edge="1">
          <mxGeometry width="50" height="50" relative="1" as="geometry">
            <mxPoint x="139.5" y="620" as="sourcePoint" />
            <mxPoint x="139.5" y="580" as="targetPoint" />
          </mxGeometry>
        </mxCell>
        <mxCell id="6Z7XfqViIywqbPi5wwy--39" value="Calcular dsc. de pensión = salario * 4%" style="text;strokeColor=none;align=center;fillColor=none;html=1;verticalAlign=middle;whiteSpace=wrap;rounded=0;" parent="1" vertex="1">
          <mxGeometry x="90" y="500" width="100" height="80" as="geometry" />
        </mxCell>
        <mxCell id="6Z7XfqViIywqbPi5wwy--53" style="edgeStyle=orthogonalEdgeStyle;rounded=0;orthogonalLoop=1;jettySize=auto;html=1;exitX=0.5;exitY=1;exitDx=0;exitDy=0;entryX=0;entryY=0.5;entryDx=0;entryDy=0;" parent="1" source="6Z7XfqViIywqbPi5wwy--40" target="6Z7XfqViIywqbPi5wwy--43" edge="1">
          <mxGeometry relative="1" as="geometry" />
        </mxCell>
        <mxCell id="6Z7XfqViIywqbPi5wwy--40" value="Calcular el pago de transporte = 146.000" style="text;strokeColor=none;align=center;fillColor=none;html=1;verticalAlign=middle;whiteSpace=wrap;rounded=0;" parent="1" vertex="1">
          <mxGeometry x="90" y="620" width="100" height="80" as="geometry" />
        </mxCell>
        <mxCell id="6Z7XfqViIywqbPi5wwy--42" value="" style="endArrow=none;html=1;rounded=0;entryX=0.5;entryY=1;entryDx=0;entryDy=0;" parent="1" edge="1">
          <mxGeometry width="50" height="50" relative="1" as="geometry">
            <mxPoint x="499.57" y="180" as="sourcePoint" />
            <mxPoint x="499.57" y="140" as="targetPoint" />
          </mxGeometry>
        </mxCell>
        <mxCell id="6Z7XfqViIywqbPi5wwy--43" value="" style="verticalLabelPosition=bottom;verticalAlign=top;html=1;shape=process;whiteSpace=wrap;rounded=1;size=0.14;arcSize=6;" parent="1" vertex="1">
          <mxGeometry x="430" y="60" width="140" height="80" as="geometry" />
        </mxCell>
        <mxCell id="6Z7XfqViIywqbPi5wwy--44" value="Calcular salario final = salario - préstamo - eps - pensión + transporte" style="text;strokeColor=none;align=center;fillColor=none;html=1;verticalAlign=middle;whiteSpace=wrap;rounded=0;" parent="1" vertex="1">
          <mxGeometry x="450" y="60" width="100" height="80" as="geometry" />
        </mxCell>
        <mxCell id="6Z7XfqViIywqbPi5wwy--46" value="" style="endArrow=none;html=1;rounded=0;entryX=0.5;entryY=1;entryDx=0;entryDy=0;" parent="1" edge="1">
          <mxGeometry width="50" height="50" relative="1" as="geometry">
            <mxPoint x="499.57000000000005" y="280" as="sourcePoint" />
            <mxPoint x="499.57000000000005" y="240" as="targetPoint" />
          </mxGeometry>
        </mxCell>
        <mxCell id="6Z7XfqViIywqbPi5wwy--47" value="Salario final = 1.473.104" style="shape=parallelogram;perimeter=parallelogramPerimeter;whiteSpace=wrap;html=1;fixedSize=1;" parent="1" vertex="1">
          <mxGeometry x="440" y="180" width="120" height="60" as="geometry" />
        </mxCell>
        <mxCell id="6Z7XfqViIywqbPi5wwy--48" value="Salario base = 1.600.000&lt;br&gt;Dsc. préstamo = 160.000&lt;br&gt;Dsc. de EPS = 57.600&lt;br&gt;Dsc. de pensión = 55.196&lt;br&gt;Pago transporte = 146.000&lt;br&gt;Salario final = 1.473.104" style="shape=card;whiteSpace=wrap;html=1;" parent="1" vertex="1">
          <mxGeometry x="440" y="280" width="120" height="200" as="geometry" />
        </mxCell>
        <mxCell id="6Z7XfqViIywqbPi5wwy--51" value="&lt;span style=&quot;font-size: 16px;&quot;&gt;Fin&lt;/span&gt;" style="ellipse;whiteSpace=wrap;html=1;" parent="1" vertex="1">
          <mxGeometry x="440" y="520" width="120" height="80" as="geometry" />
        </mxCell>
        <mxCell id="6Z7XfqViIywqbPi5wwy--52" value="" style="endArrow=none;html=1;rounded=0;entryX=0.5;entryY=1;entryDx=0;entryDy=0;" parent="1" edge="1">
          <mxGeometry width="50" height="50" relative="1" as="geometry">
            <mxPoint x="499.57" y="520" as="sourcePoint" />
            <mxPoint x="499.57" y="480" as="targetPoint" />
          </mxGeometry>
        </mxCell>
      </root>
    </mxGraphModel>
  </diagram>
  <diagram id="3Nx0kYGu5Vem1Ov_feKn" name="Página-2">
    <mxGraphModel dx="1562" dy="861" grid="1" gridSize="10" guides="1" tooltips="1" connect="1" arrows="1" fold="1" page="1" pageScale="1" pageWidth="827" pageHeight="1169" math="0" shadow="0">
      <root>
        <mxCell id="0" />
        <mxCell id="1" parent="0" />
      </root>
    </mxGraphModel>
  </diagram>
</mxfile>
